<svg width="24" height="24" viewBox="0 0 24 24" fill="none" xmlns="http://www.w3.org/2000/svg">
<path fill-rule="evenodd" clip-rule="evenodd" d="M12 1C5.925 1 1 5.925 1 12C1 18.075 5.925 23 12 23C18.075 23 23 18.075 23 12C23 5.925 18.075 1 12 1ZM8.707 14.207C8.5184 14.3892 8.2658 14.49 8.0036 14.4877C7.7414 14.4854 7.49059 14.3802 7.30518 14.1948C7.11977 14.0094 7.0146 13.7586 7.01233 13.4964C7.01005 13.2342 7.11084 12.9816 7.293 12.793L11.293 8.793C11.4805 8.60553 11.7348 8.50021 12 8.50021C12.2652 8.50021 12.5195 8.60553 12.707 8.793L16.707 12.793C16.8892 12.9816 16.99 13.2342 16.9877 13.4964C16.9854 13.7586 16.8802 14.0094 16.6948 14.1948C16.5094 14.3802 16.2586 14.4854 15.9964 14.4877C15.7342 14.49 15.4816 14.3892 15.293 14.207L12 10.914L8.707 14.207Z" fill="#A7C4BC"/>
</svg>
